<svg width="20" height="37" viewBox="0 0 20 37" fill="none" xmlns="http://www.w3.org/2000/svg">
<path d="M18.915 12.5734L15.5033 35.5734C15.4669 35.8185 15.2565 36 15.0087 36H4.9913C4.7435 36 4.53308 35.8185 4.49672 35.5734L1.08505 12.5734C1.04025 12.2713 1.27428 12 1.57964 12H18.4204C18.7257 12 18.9598 12.2713 18.915 12.5734Z" fill="url(#paint0_linear_4_636)" stroke="url(#paint1_linear_4_636)"/>
<circle cx="5.33333" cy="35" r="1.33333" fill="black"/>
<path d="M4.99278 34.3605L4.86094 34.3341C4.85862 34.3337 4.85624 34.3347 4.85493 34.3366C4.73849 34.5113 4.72456 34.735 4.81844 34.9227L4.85221 34.9903C4.85452 34.9949 4.8608 34.9956 4.8641 34.9916L5.11099 34.6954C5.21127 34.575 5.14639 34.3912 4.99278 34.3605Z" stroke="white" stroke-width="0.5"/>
<circle cx="5.33333" cy="35" r="1.33333" fill="black"/>
<path d="M4.99278 34.3605L4.86094 34.3341C4.85862 34.3337 4.85624 34.3347 4.85493 34.3366C4.73849 34.5113 4.72456 34.735 4.81844 34.9227L4.85221 34.9903C4.85452 34.9949 4.8608 34.9956 4.8641 34.9916L5.11099 34.6954C5.21127 34.575 5.14639 34.3912 4.99278 34.3605Z" stroke="white" stroke-width="0.5"/>
<circle cx="9.33333" cy="33" r="1.33333" fill="black"/>
<path d="M8.99278 32.3605L8.86094 32.3341C8.85862 32.3337 8.85624 32.3347 8.85493 32.3366C8.73849 32.5113 8.72456 32.735 8.81844 32.9227L8.85221 32.9903C8.85452 32.9949 8.8608 32.9956 8.8641 32.9916L9.11099 32.6954C9.21127 32.575 9.14639 32.3912 8.99278 32.3605Z" stroke="white" stroke-width="0.5"/>
<circle cx="6.66659" cy="33" r="1.33333" fill="black"/>
<path d="M6.32603 32.3605L6.1942 32.3341C6.19187 32.3337 6.1895 32.3347 6.18818 32.3366C6.07174 32.5113 6.05781 32.735 6.15169 32.9227L6.18546 32.9903C6.18777 32.9949 6.19405 32.9956 6.19735 32.9916L6.44424 32.6954C6.54452 32.575 6.47964 32.3912 6.32603 32.3605Z" stroke="white" stroke-width="0.5"/>
<circle cx="6.66659" cy="33" r="1.33333" fill="black"/>
<path d="M6.32603 32.3605L6.1942 32.3341C6.19187 32.3337 6.1895 32.3347 6.18818 32.3366C6.07174 32.5113 6.05781 32.735 6.15169 32.9227L6.18546 32.9903C6.18777 32.9949 6.19405 32.9956 6.19735 32.9916L6.44424 32.6954C6.54452 32.575 6.47964 32.3912 6.32603 32.3605Z" stroke="white" stroke-width="0.5"/>
<circle cx="14.6666" cy="35" r="1.33333" fill="black"/>
<path d="M14.326 34.3605L14.1942 34.3341C14.1919 34.3337 14.1895 34.3347 14.1882 34.3366C14.0717 34.5113 14.0578 34.735 14.1517 34.9227L14.1855 34.9903C14.1878 34.9949 14.1941 34.9956 14.1974 34.9916L14.4442 34.6954C14.5445 34.575 14.4796 34.3912 14.326 34.3605Z" stroke="white" stroke-width="0.5"/>
<circle cx="10.6666" cy="35" r="1.33333" fill="black"/>
<path d="M10.326 34.3605L10.1942 34.3341C10.1919 34.3337 10.1895 34.3347 10.1882 34.3366C10.0717 34.5113 10.0578 34.735 10.1517 34.9227L10.1855 34.9903C10.1878 34.9949 10.1941 34.9956 10.1974 34.9916L10.4442 34.6954C10.5445 34.575 10.4796 34.3912 10.326 34.3605Z" stroke="white" stroke-width="0.5"/>
<circle cx="10.6666" cy="35" r="1.33333" fill="black"/>
<path d="M10.326 34.3605L10.1942 34.3341C10.1919 34.3337 10.1895 34.3347 10.1882 34.3366C10.0717 34.5113 10.0578 34.735 10.1517 34.9227L10.1855 34.9903C10.1878 34.9949 10.1941 34.9956 10.1974 34.9916L10.4442 34.6954C10.5445 34.575 10.4796 34.3912 10.326 34.3605Z" stroke="white" stroke-width="0.5"/>
<circle cx="13.3333" cy="33" r="1.33333" fill="black"/>
<path d="M12.9928 32.3605L12.8609 32.3341C12.8586 32.3337 12.8562 32.3347 12.8549 32.3366C12.7385 32.5113 12.7246 32.735 12.8184 32.9227L12.8522 32.9903C12.8545 32.9949 12.8608 32.9956 12.8641 32.9916L13.111 32.6954C13.2113 32.575 13.1464 32.3912 12.9928 32.3605Z" stroke="white" stroke-width="0.5"/>
<circle cx="10.6666" cy="33" r="1.33333" fill="black"/>
<path d="M10.326 32.3605L10.1942 32.3341C10.1919 32.3337 10.1895 32.3347 10.1882 32.3366C10.0717 32.5113 10.0578 32.735 10.1517 32.9227L10.1855 32.9903C10.1878 32.9949 10.1941 32.9956 10.1974 32.9916L10.4442 32.6954C10.5445 32.575 10.4796 32.3912 10.326 32.3605Z" stroke="white" stroke-width="0.5"/>
<circle cx="15.3332" cy="29.0001" r="1.33333" fill="black"/>
<path d="M14.9927 28.3605L14.8608 28.3342C14.8585 28.3337 14.8561 28.3347 14.8548 28.3367C14.7384 28.5113 14.7244 28.735 14.8183 28.9227L14.8521 28.9903C14.8544 28.9949 14.8607 28.9956 14.864 28.9917L15.1109 28.6954C15.2111 28.5751 15.1463 28.3913 14.9927 28.3605Z" stroke="white" stroke-width="0.5"/>
<circle cx="5.33333" cy="31" r="1.33333" fill="black"/>
<path d="M4.99278 30.3604L4.86094 30.3341C4.85862 30.3336 4.85624 30.3346 4.85493 30.3366C4.73849 30.5112 4.72456 30.7349 4.81844 30.9227L4.85221 30.9902C4.85452 30.9948 4.8608 30.9955 4.8641 30.9916L5.11099 30.6953C5.21127 30.575 5.14639 30.3912 4.99278 30.3604Z" stroke="white" stroke-width="0.5"/>
<circle cx="5.33333" cy="31" r="1.33333" fill="black"/>
<path d="M4.99278 30.3605L4.86094 30.3341C4.85862 30.3336 4.85624 30.3346 4.85493 30.3366C4.73849 30.5113 4.72456 30.7349 4.81844 30.9227L4.85221 30.9902C4.85452 30.9948 4.8608 30.9956 4.8641 30.9916L5.11099 30.6953C5.21127 30.575 5.14639 30.3912 4.99278 30.3605Z" stroke="white" stroke-width="0.5"/>
<circle cx="12" cy="34.3333" r="1.33333" fill="black"/>
<path d="M11.6594 33.6938L11.5276 33.6674C11.5252 33.6669 11.5229 33.6679 11.5216 33.6699C11.4051 33.8445 11.3912 34.0682 11.4851 34.256L11.5188 34.3235C11.5211 34.3281 11.5274 34.3289 11.5307 34.3249L11.7776 34.0286C11.8779 33.9083 11.813 33.7245 11.6594 33.6938Z" stroke="white" stroke-width="0.5"/>
<circle cx="14.6667" cy="31.6666" r="1.33333" fill="black"/>
<path d="M14.3262 31.0271L14.1943 31.0007C14.192 31.0003 14.1896 31.0013 14.1883 31.0032C14.0719 31.1779 14.0579 31.4016 14.1518 31.5893L14.1856 31.6569C14.1879 31.6615 14.1942 31.6622 14.1975 31.6582L14.4444 31.362C14.5446 31.2416 14.4798 31.0578 14.3262 31.0271Z" stroke="white" stroke-width="0.5"/>
<circle cx="14.6667" cy="31.6666" r="1.33333" fill="black"/>
<path d="M14.3262 31.0271L14.1943 31.0007C14.192 31.0003 14.1896 31.0013 14.1883 31.0032C14.0719 31.1779 14.0579 31.4016 14.1518 31.5893L14.1856 31.6569C14.1879 31.6615 14.1942 31.6622 14.1975 31.6582L14.4444 31.362C14.5446 31.2416 14.4798 31.0578 14.3262 31.0271Z" stroke="white" stroke-width="0.5"/>
<circle cx="11.3333" cy="30.3333" r="1.33333" fill="black"/>
<path d="M10.9928 29.6938L10.8609 29.6674C10.8586 29.6669 10.8562 29.6679 10.8549 29.6699C10.7385 29.8445 10.7246 30.0682 10.8184 30.256L10.8522 30.3235C10.8545 30.3281 10.8608 30.3289 10.8641 30.3249L11.111 30.0286C11.2113 29.9083 11.1464 29.7245 10.9928 29.6938Z" stroke="white" stroke-width="0.5"/>
<circle cx="8.66671" cy="30.3333" r="1.33333" fill="black"/>
<path d="M8.32616 29.6938L8.19432 29.6674C8.19199 29.6669 8.18962 29.6679 8.1883 29.6699C8.07186 29.8445 8.05794 30.0682 8.15181 30.256L8.18559 30.3235C8.18789 30.3281 8.19417 30.3289 8.19748 30.3249L8.44436 30.0286C8.54464 29.9083 8.47976 29.7245 8.32616 29.6938Z" stroke="white" stroke-width="0.5"/>
<circle cx="8.66671" cy="30.3333" r="1.33333" fill="black"/>
<path d="M8.32616 29.6938L8.19432 29.6674C8.19199 29.6669 8.18962 29.6679 8.1883 29.6699C8.07186 29.8445 8.05794 30.0682 8.15181 30.256L8.18559 30.3235C8.18789 30.3281 8.19417 30.3289 8.19748 30.3249L8.44436 30.0286C8.54464 29.9083 8.47976 29.7245 8.32616 29.6938Z" stroke="white" stroke-width="0.5"/>
<circle cx="6.66659" cy="29" r="1.33333" fill="black"/>
<path d="M6.32603 28.3604L6.1942 28.3341C6.19187 28.3336 6.1895 28.3346 6.18818 28.3366C6.07174 28.5112 6.05781 28.7349 6.15169 28.9227L6.18546 28.9902C6.18777 28.9948 6.19405 28.9955 6.19735 28.9916L6.44424 28.6953C6.54452 28.575 6.47964 28.3912 6.32603 28.3604Z" stroke="white" stroke-width="0.5"/>
<circle cx="14" cy="30.3333" r="1.33333" fill="black"/>
<path d="M13.6594 29.6938L13.5276 29.6674C13.5252 29.6669 13.5229 29.6679 13.5216 29.6699C13.4051 29.8445 13.3912 30.0682 13.4851 30.256L13.5188 30.3235C13.5211 30.3281 13.5274 30.3289 13.5307 30.3249L13.7776 30.0286C13.8779 29.9083 13.813 29.7245 13.6594 29.6938Z" stroke="white" stroke-width="0.5"/>
<circle cx="11.3332" cy="30.3333" r="1.33333" fill="black"/>
<path d="M10.9927 29.6938L10.8608 29.6674C10.8585 29.6669 10.8561 29.6679 10.8548 29.6699C10.7384 29.8445 10.7244 30.0682 10.8183 30.256L10.8521 30.3235C10.8544 30.3281 10.8607 30.3289 10.864 30.3249L11.1109 30.0286C11.2111 29.9083 11.1463 29.7245 10.9927 29.6938Z" stroke="white" stroke-width="0.5"/>
<circle cx="11.3332" cy="30.3333" r="1.33333" fill="black"/>
<path d="M10.9927 29.6938L10.8608 29.6674C10.8585 29.6669 10.8561 29.6679 10.8548 29.6699C10.7384 29.8445 10.7244 30.0682 10.8183 30.256L10.8521 30.3235C10.8544 30.3281 10.8607 30.3289 10.864 30.3249L11.1109 30.0286C11.2111 29.9083 11.1463 29.7245 10.9927 29.6938Z" stroke="white" stroke-width="0.5"/>
<circle cx="12.6666" cy="28.3333" r="1.33333" fill="black"/>
<path d="M12.326 27.6938L12.1942 27.6674C12.1919 27.6669 12.1895 27.6679 12.1882 27.6699C12.0717 27.8445 12.0578 28.0682 12.1517 28.256L12.1855 28.3235C12.1878 28.3281 12.1941 28.3289 12.1974 28.3249L12.4442 28.0286C12.5445 27.9083 12.4796 27.7245 12.326 27.6938Z" stroke="white" stroke-width="0.5"/>
<circle cx="9.99996" cy="28.3333" r="1.33333" fill="black"/>
<path d="M9.65941 27.6938L9.52757 27.6674C9.52525 27.6669 9.52287 27.6679 9.52156 27.6699C9.40511 27.8445 9.39119 28.0682 9.48507 28.256L9.51884 28.3235C9.52114 28.3281 9.52743 28.3289 9.53073 28.3249L9.77761 28.0286C9.8779 27.9083 9.81301 27.7245 9.65941 27.6938Z" stroke="white" stroke-width="0.5"/>
<circle cx="9.99996" cy="28.3333" r="1.33333" fill="black"/>
<path d="M9.65941 27.6938L9.52757 27.6674C9.52525 27.6669 9.52287 27.6679 9.52156 27.6699C9.40511 27.8445 9.39119 28.0682 9.48507 28.256L9.51884 28.3235C9.52114 28.3281 9.52743 28.3289 9.53073 28.3249L9.77761 28.0286C9.8779 27.9083 9.81301 27.7245 9.65941 27.6938Z" stroke="white" stroke-width="0.5"/>
<circle cx="7.99996" cy="31" r="1.33333" fill="black"/>
<path d="M7.65941 30.3604L7.52757 30.3341C7.52525 30.3336 7.52287 30.3346 7.52156 30.3366C7.40511 30.5112 7.39119 30.7349 7.48507 30.9227L7.51884 30.9902C7.52114 30.9948 7.52743 30.9955 7.53073 30.9916L7.77761 30.6953C7.8779 30.575 7.81301 30.3912 7.65941 30.3604Z" stroke="white" stroke-width="0.5"/>
<circle cx="12.6666" cy="32.3333" r="1.33333" fill="black"/>
<path d="M12.326 31.6938L12.1942 31.6674C12.1919 31.6669 12.1895 31.6679 12.1882 31.6699C12.0717 31.8445 12.0578 32.0682 12.1517 32.256L12.1855 32.3235C12.1878 32.3281 12.1941 32.3289 12.1974 32.3249L12.4442 32.0286C12.5445 31.9083 12.4796 31.7245 12.326 31.6938Z" stroke="white" stroke-width="0.5"/>
<circle cx="12.6666" cy="32.3333" r="1.33333" fill="black"/>
<path d="M12.326 31.6938L12.1942 31.6674C12.1919 31.6669 12.1895 31.6679 12.1882 31.6699C12.0717 31.8445 12.0578 32.0682 12.1517 32.256L12.1855 32.3235C12.1878 32.3281 12.1941 32.3289 12.1974 32.3249L12.4442 32.0286C12.5445 31.9083 12.4796 31.7245 12.326 31.6938Z" stroke="white" stroke-width="0.5"/>
<circle cx="14" cy="30.3333" r="1.33333" fill="black"/>
<path d="M13.6594 29.6938L13.5276 29.6674C13.5252 29.6669 13.5229 29.6679 13.5216 29.6699C13.4051 29.8445 13.3912 30.0682 13.4851 30.256L13.5188 30.3235C13.5211 30.3281 13.5274 30.3289 13.5307 30.3249L13.7776 30.0286C13.8779 29.9083 13.813 29.7245 13.6594 29.6938Z" stroke="white" stroke-width="0.5"/>
<circle cx="11.3333" cy="30.3333" r="1.33333" fill="black"/>
<path d="M10.9928 29.6938L10.8609 29.6674C10.8586 29.6669 10.8562 29.6679 10.8549 29.6699C10.7385 29.8445 10.7246 30.0682 10.8184 30.256L10.8522 30.3235C10.8545 30.3281 10.8608 30.3289 10.8641 30.3249L11.111 30.0286C11.2113 29.9083 11.1464 29.7245 10.9928 29.6938Z" stroke="white" stroke-width="0.5"/>
<circle cx="11.3333" cy="30.3333" r="1.33333" fill="black"/>
<path d="M10.9928 29.6938L10.8609 29.6674C10.8586 29.6669 10.8562 29.6679 10.8549 29.6699C10.7385 29.8445 10.7246 30.0682 10.8184 30.256L10.8522 30.3235C10.8545 30.3281 10.8608 30.3289 10.8641 30.3249L11.111 30.0286C11.2113 29.9083 11.1464 29.7245 10.9928 29.6938Z" stroke="white" stroke-width="0.5"/>
<circle cx="7.99996" cy="35" r="1.33333" fill="black"/>
<path d="M7.65941 34.3605L7.52757 34.3341C7.52525 34.3337 7.52287 34.3347 7.52156 34.3366C7.40511 34.5113 7.39119 34.735 7.48507 34.9227L7.51884 34.9903C7.52114 34.9949 7.52743 34.9956 7.53073 34.9916L7.77761 34.6954C7.8779 34.575 7.81301 34.3912 7.65941 34.3605Z" stroke="white" stroke-width="0.5"/>
<path d="M19 12C19 13.1046 14.9706 14 10 14C5.02944 14 1 13.1046 1 12C1 10.8954 5.02944 10 10 10C14.9706 10 19 10.8954 19 12Z" fill="black"/>
<path d="M9.68416 18.3235L15.3654 0.5L15.6492 0.5L9.96792 18.3235L9.68416 18.3235Z" stroke="url(#paint2_linear_4_636)"/>
<defs>
<linearGradient id="paint0_linear_4_636" x1="10" y1="36" x2="10" y2="12" gradientUnits="userSpaceOnUse">
<stop offset="0.817708" stop-color="#C59662"/>
<stop offset="0.880208" stop-color="#C59662" stop-opacity="0"/>
</linearGradient>
<linearGradient id="paint1_linear_4_636" x1="10" y1="36" x2="10" y2="12" gradientUnits="userSpaceOnUse">
<stop offset="0.817708" stop-color="#C59662"/>
<stop offset="0.890625"/>
</linearGradient>
<linearGradient id="paint2_linear_4_636" x1="12.6667" y1="0" x2="12.6667" y2="18.8235" gradientUnits="userSpaceOnUse">
<stop offset="0.666667" stop-color="#1F897C"/>
<stop offset="0.666767" stop-color="#1F897C" stop-opacity="0"/>
<stop offset="0.772652" stop-color="#1F897C" stop-opacity="0"/>
<stop offset="0.890625" stop-color="#1F897C" stop-opacity="0.94"/>
<stop offset="0.890725" stop-color="#1F897C" stop-opacity="0"/>
</linearGradient>
</defs>
</svg>
