<svg width="104" height="103" viewBox="0 0 104 103" fill="none" xmlns="http://www.w3.org/2000/svg">
<path d="M52.075 102.701C80.435 102.701 103.425 79.7104 103.425 51.3504C103.425 22.9904 80.435 0 52.075 0C23.715 0 0.724609 22.9904 0.724609 51.3504C0.724609 79.7104 23.715 102.701 52.075 102.701Z" fill="#E43535"/>
<path fill-rule="evenodd" clip-rule="evenodd" d="M50.7037 60.2208C50.2994 61.7756 49.8927 63.408 49.4703 65.0027C49.0547 66.5764 48.691 68.17 48.0844 69.615C47.0814 72.0082 45.8074 74.3216 44.1368 76.1935C43.0277 77.4401 43.2637 76.9399 42.9283 76.8756C42.6741 76.8235 42.6515 76.5806 42.6007 76.2324C42.3296 74.3271 42.5149 72.1291 42.6165 69.9943C42.7317 67.5578 43.2615 65.5328 43.7528 63.5078C44.6892 59.6541 45.5815 55.8768 46.5257 51.9965C46.589 51.7392 46.7584 51.3111 46.6985 51.1648C46.2716 50.0857 45.9926 49.1164 45.8717 47.9886C45.7306 46.6878 45.839 45.4745 46.1406 44.3589C46.6737 42.3838 47.9037 40.6293 49.799 39.9917C51.003 39.5847 52.3392 39.771 53.1502 40.2368C53.9849 40.7181 54.5576 41.481 54.8253 42.5623C55.111 43.7123 54.8998 45.0875 54.6716 46.0978C54.1555 48.3712 53.4778 50.0802 52.8611 52.2793C52.5561 53.3683 52.2116 54.4862 52.4962 55.6628C52.7571 56.7419 53.34 57.4871 54.1329 58.0449C54.954 58.6238 55.9276 58.9399 57.2706 58.8944C59.6425 58.8157 61.2916 57.3474 62.3929 55.9633C64.1549 53.752 65.2223 50.7666 65.6277 47.2123C65.7576 46.0667 65.8536 44.7504 65.7622 43.4495C65.595 41.053 64.819 39.1233 63.5868 37.6273C62.4155 36.2034 60.7551 35.07 58.7356 34.4323C56.733 33.8002 53.9589 33.5906 51.4955 33.9976C47.0216 34.7395 43.8635 37.2003 42.0043 40.595C41.0296 42.3738 40.3869 44.4199 40.3869 46.9661C40.3869 48.9279 40.8873 50.4495 41.6971 51.6361C41.9524 52.0109 42.3319 52.3214 42.5826 52.7495C42.9384 53.3583 42.5273 54.2666 42.3511 54.9231C42.1388 55.7194 42.1162 56.8151 41.1572 56.8328C40.7608 56.8417 39.8843 56.3271 39.5771 56.102C37.6185 54.6636 36.8414 53.6755 35.8531 51.32C35.0907 49.5002 34.7315 46.0822 35.1122 44.2158C35.4793 42.4115 36.2993 39.8885 37.0572 38.5356C38.6305 35.7287 40.9347 33.4852 43.7393 31.8816C45.8955 30.6495 48.3261 29.7834 51.2865 29.3664C52.2681 29.2267 53.2835 29.1713 54.3859 29.1214C57.6072 28.9727 60.5371 29.6792 62.7419 30.6318C65.0698 31.6388 66.9278 32.9795 68.4989 34.6397C70.1164 36.3486 71.2944 38.3371 72.041 40.8212C72.4307 42.1132 72.6159 43.5704 72.6159 45.1662C72.6159 46.7676 72.4589 48.1062 72.215 49.5168C71.3001 54.7989 68.7022 59.1173 64.8021 61.5782C63.8567 62.1748 62.7125 62.7238 61.4136 63.0886C60.126 63.4535 58.6565 63.7241 57.082 63.6176C55.5538 63.5167 54.3034 63.1163 53.2507 62.5419C52.2014 61.9763 51.3249 61.2765 50.7037 60.2208Z" fill="white"/>
</svg>
