<svg width="103" height="103" viewBox="0 0 103 103" fill="none" xmlns="http://www.w3.org/2000/svg">
<path d="M81.4523 0H21.2484C9.51325 0 0 9.51325 0 21.2484V81.4523C0 93.1875 9.51325 102.701 21.2484 102.701H81.4523C93.1875 102.701 102.701 93.1875 102.701 81.4523V21.2484C102.701 9.51325 93.1875 0 81.4523 0Z" fill="#FF78C7"/>
<path d="M77.9096 12.3984H24.7885C17.9429 12.3984 12.3936 17.9478 12.3936 24.7934V77.9144C12.3936 84.76 17.9429 90.3094 24.7885 90.3094H77.9096C84.7551 90.3094 90.3045 84.76 90.3045 77.9144V24.7934C90.3045 17.9478 84.7551 12.3984 77.9096 12.3984Z" stroke="white" stroke-width="6.82966" stroke-linecap="round"/>
<path d="M51.3504 67.2867C60.1518 67.2867 67.2867 60.1518 67.2867 51.3504C67.2867 42.549 60.1518 35.4141 51.3504 35.4141C42.549 35.4141 35.4141 42.549 35.4141 51.3504C35.4141 60.1518 42.549 67.2867 51.3504 67.2867Z" stroke="white" stroke-width="6.82966" stroke-linecap="round"/>
<path d="M74.3707 33.6437C77.3045 33.6437 79.6828 31.2654 79.6828 28.3316C79.6828 25.3978 77.3045 23.0195 74.3707 23.0195C71.4369 23.0195 69.0586 25.3978 69.0586 28.3316C69.0586 31.2654 71.4369 33.6437 74.3707 33.6437Z" fill="white"/>
</svg>
