<svg width="103" height="103" viewBox="0 0 103 103" fill="none" xmlns="http://www.w3.org/2000/svg">
<path d="M51.3504 102.701C79.7104 102.701 102.701 79.7104 102.701 51.3504C102.701 22.9904 79.7104 0 51.3504 0C22.9904 0 0 22.9904 0 51.3504C0 79.7104 22.9904 102.701 51.3504 102.701Z" fill="#5B68C0"/>
<path fill-rule="evenodd" clip-rule="evenodd" d="M58.2653 29.1088C58.2653 29.1088 50.6433 28.6109 48.6893 35.861C48.6893 35.861 47.9817 37.763 48.0788 42.4481L41.0801 42.4683V48.5973L48.0788 48.577V73.6052H57V48.5973L64.0756 48.5973V42.4481L57 42.4481V39.1082C57 36.9427 58.2029 34.8718 61.7214 34.8718H65.0436V29.1088H58.2653Z" fill="white"/>
</svg>
