<svg width="103" height="103" viewBox="0 0 103 103" fill="none" xmlns="http://www.w3.org/2000/svg">
<path d="M25.0085 88.027C26.0652 87.7019 27.2111 87.8526 28.1478 88.4399C35.0467 92.7657 43.0221 95.0933 51.3504 95.0933C75.5089 95.0933 95.0933 75.5089 95.0933 51.3504C95.0933 27.1918 75.5089 7.60746 51.3504 7.60746C27.1918 7.60746 7.60746 27.1918 7.60746 51.3504C7.60746 59.9233 10.0743 68.1208 14.6423 75.1505C15.2427 76.0746 15.4129 77.2137 15.1087 78.2729C14.5277 80.2964 13.7281 83.1468 12.7661 86.6161C12.7246 86.7656 12.7246 86.7656 12.6832 86.9152C12.2056 88.6384 11.7077 90.4425 11.2038 92.2746L25.0085 88.027ZM6.82422 101.582C3.95874 102.463 1.24709 99.8378 2.03587 96.9454C2.08747 96.7561 2.08747 96.7561 2.31921 95.9079C2.54456 95.0835 2.79601 94.1649 3.06724 93.1757C3.84225 90.3491 4.62065 87.5224 5.35205 84.8834C5.39365 84.7333 5.39365 84.7333 5.43526 84.5832C6.16838 81.9394 6.80805 79.6516 7.33115 77.8062C2.56441 69.892 0 60.8071 0 51.3504C0 22.9904 22.9904 0 51.3504 0C79.7104 0 102.701 22.9904 102.701 51.3504C102.701 79.7104 79.7104 102.701 51.3504 102.701C42.1846 102.701 33.3658 100.292 25.6199 95.7983L6.82422 101.582ZM59.755 60.7059C60.2606 60.2003 60.8097 59.5901 61.3847 58.9001C62.103 58.0382 62.8201 57.1028 63.4966 56.1662C63.9013 55.6057 64.198 55.1761 64.3513 54.946C64.4903 54.7376 64.6495 54.5435 64.8266 54.3663C65.1536 54.0394 65.5839 53.7166 66.1321 53.4425C67.837 52.5901 69.9427 52.5901 72.0701 53.6538C72.7762 54.0069 80.9636 59.3301 84.5784 61.3384C85.985 62.1198 86.7477 63.7017 86.4832 65.2888C85.6242 70.4426 84.1321 74.3474 80.785 77.6945C76.1507 82.3288 69.0591 84.1463 59.3445 82.6891C41.363 79.9919 25.8966 64.2336 19.2722 47.0102C16.3908 39.5185 17.8021 32.1483 21.7939 25.4953C23.2734 23.0294 24.7663 21.2048 25.8383 20.1327C26.3693 19.6017 27.0457 19.2398 27.782 19.0925C28.1103 19.0269 28.6263 18.9358 29.258 18.8456C29.9214 18.7508 30.577 18.678 31.2099 18.6358C33.7984 18.4632 35.4356 18.6451 36.9232 20.1327C38.8031 22.0126 44.6939 33.341 44.6939 36.1355C44.6939 39.0713 43.4061 41.5622 40.2051 45.0052C41.1121 47.4441 44.2849 51.1614 48.8926 54.95C51.2836 56.9159 53.8879 58.7666 56.164 60.1501C57.1799 60.7676 58.0765 61.2579 58.7615 61.5763C59.0622 61.3666 59.3915 61.0694 59.755 60.7059ZM28.3173 29.4093C25.4217 34.2353 24.4537 39.2902 26.3726 44.2793C32.1058 59.1857 45.6004 72.9349 60.473 75.1658C67.96 76.2888 72.6286 75.0924 75.4057 72.3152C76.8902 70.8307 77.817 68.9917 78.4494 66.573C75.1815 64.6146 71.1051 62.0025 69.4328 60.9381C68.7287 61.9011 67.9874 62.8601 67.229 63.7703C66.5163 64.6255 65.8173 65.4021 65.1342 66.0852C63.0132 68.2062 61.1954 69.4181 58.9578 69.4181C56.1612 69.4181 49.8311 65.5704 44.0611 60.8261C36.8525 54.8991 32.3317 49.1167 32.3317 43.7429C32.3317 42.7341 32.7325 41.7666 33.4458 41.0533C36.3621 38.137 37.0864 36.9299 37.0864 36.1355C36.9236 35.9289 36.7396 35.4642 36.4961 34.9048C36.0138 33.7969 35.3292 32.3876 34.5437 30.8772C33.8173 29.4801 33.0441 28.0734 32.3908 26.9555C32.232 26.6838 32.0835 26.4347 31.9484 26.2132C31.8741 26.2166 31.7965 26.221 31.716 26.2264C31.3325 26.2519 30.91 26.2973 30.472 26.3572C29.6845 27.3192 28.9769 28.3099 28.3173 29.4093Z" fill="#80D25B"/>
</svg>
