<svg width="103" height="103" viewBox="0 0 103 103" fill="none" xmlns="http://www.w3.org/2000/svg">
<path d="M51.3504 102.701C79.7104 102.701 102.701 79.7104 102.701 51.3504C102.701 22.9904 79.7104 0 51.3504 0C22.9904 0 0 22.9904 0 51.3504C0 79.7104 22.9904 102.701 51.3504 102.701Z" fill="#5EA7FF"/>
<path fill-rule="evenodd" clip-rule="evenodd" d="M74.4837 37.4795C74.4837 37.4795 78.7398 37.1442 80.4478 35.8736C80.4478 35.8736 80.0384 37.3363 74.917 41.9644C74.917 41.9644 76.6414 66.9366 50.3667 73.0525C50.3667 73.0525 37.0416 75.8901 27.3857 68.6517C27.3857 68.6517 37.4938 70.4447 43.1808 64.1743C43.1808 64.1743 35.845 64.2484 33.5249 56.7878C33.5249 56.7878 36.2947 57.3842 37.941 56.6384C37.941 56.6384 29.6316 54.9207 29.7815 45.8919C29.7815 45.8919 32.0273 47.5342 34.0476 47.2353C34.0476 47.2353 26.5632 40.8909 31.2035 32.9833C31.2035 32.9833 41.2322 44.8045 53.6617 44.1027C53.4451 43.2564 53.3279 42.37 53.3279 41.4534C53.3279 35.576 58.1105 30.8086 64.0091 30.8086C66.9893 30.8086 69.6847 32.0265 71.6232 33.989C73.044 34.0128 75.9662 33.7605 78.8847 31.6775C78.8847 31.6787 79.0522 33.9551 74.4837 37.4795Z" fill="white"/>
</svg>
